<svg width="12" height="12" fill="none" xmlns="http://www.w3.org/2000/svg"><path d="M3.964 1.606h-.107a.107.107 0 0 0 .107-.107v.107h4.072v-.107c0 .059.048.107.107.107h-.107v.964H9V1.5a.858.858 0 0 0-.857-.857H3.857A.858.858 0 0 0 3 1.499V2.57h.964v-.964Zm6.75.964H1.286A.428.428 0 0 0 .856 3v.428c0 .06.05.108.108.108h.809l.33 7.004c.022.457.4.817.857.817h6.08a.856.856 0 0 0 .856-.817l.33-7.004h.81a.108.108 0 0 0 .107-.108V3a.428.428 0 0 0-.429-.429Zm-1.777 7.822H3.063l-.324-6.857H9.26l-.324 6.857Z" fill="#000" fill-opacity=".85"/></svg>